HIERARCHY
ROOT Hips
{
	OFFSET 0.000000 0.000000 0.000000
	CHANNELS 6 Xposition Yposition Zposition Zrotation Yrotation Xrotation 
	JOINT LHipJoint
	{
		OFFSET 0.000000 0.000000 0.000000
		CHANNELS 3 Zrotation Yrotation Xrotation
		JOINT LeftUpLeg
		{
			OFFSET 1.363060 -1.794630 0.839290
			CHANNELS 3 Zrotation Yrotation Xrotation
			JOINT LeftLeg
			{
				OFFSET 2.448110 -6.726130 0.000000
				CHANNELS 3 Zrotation Yrotation Xrotation
				JOINT LeftFoot
				{
					OFFSET 2.562200 -7.039590 0.000000
					CHANNELS 3 Zrotation Yrotation Xrotation
					JOINT LeftToeBase
					{
						OFFSET 0.157640 -0.433110 2.322550
						CHANNELS 3 Zrotation Yrotation Xrotation
						End Site
						{
							OFFSET 0.000000 0.000000 0.000000
						}
					}
				}
			}
		}
	}
	JOINT RHipJoint
	{
		OFFSET 0.000000 0.000000 0.000000
		CHANNELS 3 Zrotation Yrotation Xrotation
		JOINT RightUpLeg
		{
			OFFSET -1.305520 -1.794630 0.839290
			CHANNELS 3 Zrotation Yrotation Xrotation
			JOINT RightLeg
			{
				OFFSET -2.542530 -6.985550 0.000000
				CHANNELS 3 Zrotation Yrotation Xrotation
				JOINT RightFoot
				{
					OFFSET -2.568260 -7.056230 0.000000
					CHANNELS 3 Zrotation Yrotation Xrotation
					JOINT RightToeBase
					{
						OFFSET -0.164730 -0.452590 2.363150
						CHANNELS 3 Zrotation Yrotation Xrotation
						End Site
						{
							OFFSET 0.000000 0.000000 0.000000
						}
					}
				}
			}
		}
	}
	JOINT LowerBack
	{
		OFFSET 0.000000 0.000000 0.000000
		CHANNELS 3 Zrotation Yrotation Xrotation
		JOINT Spine
		{
			OFFSET 0.028270 2.035590 -0.193380
			CHANNELS 3 Zrotation Yrotation Xrotation
			JOINT Spine1
			{
				OFFSET 0.056720 2.048850 -0.042750
				CHANNELS 3 Zrotation Yrotation Xrotation
				JOINT Neck
				{
					OFFSET 0.000000 0.000000 0.000000
					CHANNELS 3 Zrotation Yrotation Xrotation
					JOINT Neck1
					{
						OFFSET -0.054170 1.746240 0.172020
						CHANNELS 3 Zrotation Yrotation Xrotation
						JOINT Head
						{
							OFFSET 0.104070 1.761360 -0.123970
							CHANNELS 3 Zrotation Yrotation Xrotation
							End Site
							{
								OFFSET 0.000000 0.000000 0.000000
							}
						}
					}
				}
				JOINT LeftShoulder
				{
					OFFSET 0.000000 0.000000 0.000000
					CHANNELS 3 Zrotation Yrotation Xrotation
					JOINT LeftArm
					{
						OFFSET 3.362410 1.200890 -0.311210
						CHANNELS 3 Zrotation Yrotation Xrotation
						JOINT LeftForeArm
						{
							OFFSET 4.983000 -0.000000 -0.000000
							CHANNELS 3 Zrotation Yrotation Xrotation
							JOINT LeftHand
							{
								OFFSET 3.483560 -0.000000 -0.000000
								CHANNELS 3 Zrotation Yrotation Xrotation
								JOINT LeftFingerBase
								{
									OFFSET 0.000000 0.000000 0.000000
									CHANNELS 3 Zrotation Yrotation Xrotation
									JOINT LeftHandIndex1
									{
										OFFSET 0.715260 -0.000000 -0.000000
										CHANNELS 3 Zrotation Yrotation Xrotation
										End Site
										{
											OFFSET 0.000000 0.000000 0.000000
										}
									}
								}
								JOINT LThumb
								{
									OFFSET 0.000000 0.000000 0.000000
									CHANNELS 3 Zrotation Yrotation Xrotation
									End Site
									{
										OFFSET 0.000000 0.000000 0.000000
									}
								}
							}
						}
					}
				}
				JOINT RightShoulder
				{
					OFFSET 0.000000 0.000000 0.000000
					CHANNELS 3 Zrotation Yrotation Xrotation
					JOINT RightArm
					{
						OFFSET -3.136600 1.374050 -0.404650
						CHANNELS 3 Zrotation Yrotation Xrotation
						JOINT RightForeArm
						{
							OFFSET -5.241900 -0.000000 -0.000000
							CHANNELS 3 Zrotation Yrotation Xrotation
							JOINT RightHand
							{
								OFFSET -3.444170 -0.000000 -0.000000
								CHANNELS 3 Zrotation Yrotation Xrotation
								JOINT RightFingerBase
								{
									OFFSET 0.000000 0.000000 0.000000
									CHANNELS 3 Zrotation Yrotation Xrotation
									JOINT RightHandIndex1
									{
										OFFSET -0.622530 -0.000000 -0.000000
										CHANNELS 3 Zrotation Yrotation Xrotation
										End Site
										{
											OFFSET 0.000000 0.000000 0.000000
										}
									}
								}
								JOINT RThumb
								{
									OFFSET 0.000000 0.000000 0.000000
									CHANNELS 3 Zrotation Yrotation Xrotation
									End Site
									{
										OFFSET 0.000000 0.000000 0.000000
									}
								}
							}
						}
					}
				}
			}
		}
	}
}
MOTION
Frames: 8
Frame Time: 0.008333
5.389313 17.986327 8.576091 0.154839 -5.058620 -0.065542 -1.488450 5.428559 4.566569 -19.623314 -8.321921 -14.425918 -0.248484 6.178779 23.575919 1.964077 -8.111482 8.377734 0.927000 6.133800 17.173000 0.155998 -4.840972 3.950122 19.145945 14.528917 -19.297093 -14.771689 -16.914658 71.622936 3.271390 -15.652482 12.085431 -0.286600 -3.443100 9.515000 -0.532686 1.289850 7.554700 2.046535 1.799028 3.712233 0.728366 0.803082 -9.637835 -5.502540 -4.111300 -16.211215 5.247775 -4.747980 15.249385 0.422300 -1.865100 8.244800 -7.160394 2.815435 -1.236064 -80.252328 5.478731 13.450727 12.007076 -20.528507 -2.242065 -0.453723 -0.706232 -2.055615 26.431593 17.767299 9.130200 -7.125000 0.000000 0.000000 -1.222800 50.497800 -0.165700 11.327788 -2.024924 -2.461419 74.892264 -0.484539 5.536485 -9.188389 20.149506 -1.985542 0.987645 -0.484717 8.313822 -16.376893 20.891247 -6.452300 7.125000 0.000000 0.000000 7.117200 -8.073800 6.095600 
5.392311 17.990125 8.747777 0.127258 -4.813630 -0.002109 -1.504363 5.479319 4.644838 -19.671583 -8.356319 -13.753698 -0.289514 6.047245 23.286611 1.967438 -8.116174 8.021872 1.054100 6.528300 18.325400 0.144694 -4.803743 3.879912 19.071946 14.702001 -20.437933 -14.661725 -16.952625 71.453353 3.342501 -15.444596 10.778546 -0.325500 -3.666800 10.141100 -0.486243 1.138651 7.500186 2.038671 1.611046 3.672937 0.741823 0.702474 -9.625666 -5.489016 -4.054071 -15.891533 5.249615 -4.707693 14.985944 0.425600 -1.857000 8.114200 -7.149105 2.787374 -1.232528 -79.922972 5.284038 14.300031 12.239776 -20.885218 -2.333214 -0.453790 -0.696501 -3.052659 26.868652 16.921637 8.891100 -7.125000 0.000000 0.000000 -0.614300 49.629600 -0.070100 11.331812 -2.047510 -2.477078 75.030862 -0.716267 5.568422 -9.161666 20.114387 -1.992285 0.970219 -0.440911 7.633315 -15.746872 20.142446 -5.982500 7.125000 0.000000 0.000000 7.494900 -8.943600 6.294100 
5.395708 17.991723 8.923460 0.175950 -4.485913 0.009227 -1.513268 5.529685 4.729019 -19.825144 -8.248969 -13.089952 -0.317106 5.932398 23.065378 2.005123 -8.312613 7.658180 0.981000 6.304600 17.671000 0.138604 -4.771246 3.820000 18.911860 14.702429 -21.473650 -14.471477 -16.975579 71.071282 3.340058 -14.997867 9.507524 -0.247400 -3.200500 8.837400 -0.554810 0.921002 7.434295 2.071744 1.320657 3.739375 0.874236 0.560966 -9.545166 -5.315053 -4.022668 -16.038895 4.864343 -4.642989 14.985829 0.292600 -1.854900 8.130800 -7.151001 2.766739 -1.230193 -79.657519 4.912246 15.093985 12.432695 -21.173918 -2.409408 -0.450318 -0.688510 -4.033352 27.117500 16.170417 8.613300 -7.125000 0.000000 0.000000 -0.232500 48.828300 -0.022000 11.325767 -2.059986 -2.481836 75.102514 -0.738060 5.309226 -9.139227 20.081955 -1.996806 0.950277 -0.425742 7.351282 -15.165887 19.816158 -5.668400 7.125000 0.000000 0.000000 7.867300 -9.351100 6.548100 
5.400005 18.000718 9.099843 0.475929 -4.169016 -0.103494 -1.519458 5.588921 4.809348 -20.276311 -8.311844 -12.238656 -0.302496 5.858274 23.007194 2.000426 -8.335121 7.012147 0.935800 6.162000 17.255200 0.127471 -4.746899 3.766326 18.480850 14.571512 -22.416294 -14.229995 -16.996789 70.509821 3.284303 -14.469054 8.524586 -0.187400 -2.788200 7.689700 -0.758876 0.781546 7.497735 1.928776 1.113595 3.782727 0.948641 0.457223 -9.559090 -5.268339 -4.017227 -16.117199 4.829268 -4.635909 15.206929 0.280700 -1.844400 8.208400 -7.139438 2.759226 -1.229656 -79.258745 4.642380 15.869393 12.715986 -21.614319 -2.516992 -0.437390 -0.721043 -4.009237 27.085725 17.720216 9.365900 -7.125000 0.000000 0.000000 -0.549800 50.561500 -0.075300 11.323713 -2.065780 -2.483990 75.319207 -0.919840 4.661710 -9.126626 20.060987 -1.996728 0.930179 -0.453321 7.562092 -14.611177 20.201947 -5.567100 7.125000 0.000000 0.000000 8.251200 -8.997400 6.933500 
5.400405 18.002716 9.270529 0.502121 -3.886897 -0.090351 -1.518564 5.632611 4.874720 -20.375977 -8.430749 -11.611216 -0.295723 5.811274 22.966880 1.987428 -8.292998 6.755422 0.968500 6.265500 17.556600 0.126785 -4.709458 3.707436 18.380595 14.608228 -23.424169 -13.953991 -16.986454 69.848041 3.234618 -13.964663 7.393862 -0.203400 -2.904200 8.012200 -0.821572 0.635317 7.493985 1.960787 0.920051 3.841983 1.043047 0.358156 -9.520901 -5.357428 -3.987977 -16.245127 4.948139 -4.576111 15.317669 0.339100 -1.805400 8.265800 -7.141608 2.752293 -1.232651 -78.987337 4.165226 16.436912 13.049604 -22.144668 -2.636675 -0.431542 -0.816666 -3.693535 27.600976 22.144465 11.743700 -7.125000 0.000000 0.000000 -1.048100 55.590400 -0.272400 11.322124 -2.058926 -2.481385 75.361334 -0.966758 4.621395 -9.100854 20.019208 -1.981447 0.932841 -0.473081 7.502952 -14.576626 20.603600 -5.664400 7.125000 0.000000 0.000000 8.288700 -8.574700 7.036200 
5.402104 17.990824 9.434919 0.431970 -3.593113 0.139635 -1.514028 5.643151 4.911561 -20.357557 -8.457986 -11.306646 -0.293598 5.783310 22.940679 2.006240 -8.382204 6.608728 1.054600 6.529900 18.329900 0.123355 -4.651565 3.634517 18.334304 14.742497 -24.681970 -13.657644 -16.972311 69.122989 3.168438 -13.442747 6.231961 -0.214100 -2.979200 8.220800 -0.800799 0.467582 7.416314 2.042836 0.708719 3.715839 1.127175 0.248550 -9.551112 -5.402031 -3.957841 -16.162212 4.962989 -4.534513 15.230058 0.355700 -1.790900 8.226200 -7.138863 2.737896 -1.218106 -78.734195 3.745172 16.606089 13.023256 -22.082227 -2.633740 -0.417497 -0.764145 -3.792401 26.784226 19.955394 10.314700 -7.125000 0.000000 0.000000 -1.360300 52.991700 -0.267500 11.323648 -2.067724 -2.490347 75.336321 -1.120611 4.663523 -9.054910 19.952835 -1.962956 0.937441 -0.473519 7.452053 -14.620235 20.620601 -5.687000 7.125000 0.000000 0.000000 8.259000 -8.551500 7.014300 
5.402404 17.968539 9.603008 0.509062 -3.215969 0.247935 -1.493769 5.659940 4.959019 -20.531708 -8.289188 -10.942740 -0.239229 5.818690 23.135606 2.151849 -9.029704 5.805519 0.963200 6.249000 17.508600 0.117271 -4.602229 3.570260 18.143927 14.666285 -25.776492 -13.325461 -16.949532 68.264709 3.088403 -12.943809 5.256771 -0.156600 -2.549500 7.026900 -0.889076 0.299082 7.402924 2.068388 0.481736 3.651608 1.238427 0.134433 -9.584477 -5.496757 -3.977890 -16.259576 4.984384 -4.530531 15.335467 0.379200 -1.788900 8.274900 -7.137034 2.733603 -1.209584 -78.510842 3.326192 16.974261 13.114662 -22.207855 -2.673592 -0.407592 -0.746284 -4.045359 26.448740 19.170949 9.796200 -7.125000 0.000000 0.000000 -1.528300 52.055000 -0.265500 11.325569 -2.067976 -2.490508 75.344970 -1.231486 4.570927 -8.960911 19.803566 -1.921154 0.944005 -0.492530 7.461648 -14.656035 20.957848 -5.795300 7.125000 0.000000 0.000000 8.247000 -8.188200 7.063900 
5.398706 17.947953 9.776992 0.685941 -2.857949 0.220036 -1.472792 5.691968 5.016754 -20.814404 -8.212146 -10.401348 -0.161796 5.873059 23.409587 2.284592 -9.608386 4.875499 1.065100 6.561300 18.422000 0.118202 -4.566146 3.519125 17.877240 14.463293 -26.636241 -12.933778 -16.898787 67.211814 3.005754 -12.466080 4.314244 -0.086200 -1.893900 5.212500 -1.110549 0.148027 7.416689 2.060398 0.260501 3.747588 1.398984 0.028231 -9.537677 -5.537648 -3.997893 -16.672555 5.025258 -4.508392 15.563645 0.402900 -1.767000 8.413700 -7.134334 2.737486 -1.198897 -78.289959 2.690748 17.314315 13.187285 -22.304126 -2.707010 -0.404113 -0.722754 -4.023883 26.204360 18.230688 9.249500 -7.125000 0.000000 0.000000 -1.571700 50.963900 -0.231000 11.309316 -2.055506 -2.507694 75.358898 -1.564417 5.044234 -9.146650 20.127324 -1.990925 0.943554 -0.500706 7.036148 -14.501824 21.403048 -5.852300 7.125000 0.000000 0.000000 8.368400 -7.741600 7.244600 
